<mxfile host="app.diagrams.net" agent="Mozilla/5.0 (Windows NT 10.0; Win64; x64) AppleWebKit/537.36 (KHTML, like Gecko) Chrome/135.0.0.0 Safari/537.36 Edg/135.0.0.0" version="26.2.12">
  <diagram name="Page-1" id="3aWLDFFurOFjFMaDG3jm">
    <mxGraphModel grid="1" page="1" gridSize="10" guides="1" tooltips="1" connect="1" arrows="1" fold="1" pageScale="1" pageWidth="1100" pageHeight="1700" math="0" shadow="0">
      <root>
        <mxCell id="0" />
        <mxCell id="1" parent="0" />
        <mxCell id="qwMixDz7J2FrhQRotwlo-3" value="Vehicule" style="swimlane;fontStyle=1;align=center;verticalAlign=top;childLayout=stackLayout;horizontal=1;startSize=26;horizontalStack=0;resizeParent=1;resizeParentMax=0;resizeLast=0;collapsible=1;marginBottom=0;whiteSpace=wrap;html=1;" vertex="1" parent="1">
          <mxGeometry x="570" y="175" width="310" height="386" as="geometry" />
        </mxCell>
        <mxCell id="qwMixDz7J2FrhQRotwlo-4" value="&lt;div&gt;- serialNumber&amp;nbsp; &amp;nbsp;: int&amp;nbsp; ;&amp;nbsp; &amp;nbsp; &amp;nbsp; &amp;nbsp; &amp;nbsp; &amp;nbsp;&lt;/div&gt;&lt;div&gt;- make&amp;nbsp; &amp;nbsp;: string&amp;nbsp; &amp;nbsp;;&amp;nbsp; &amp;nbsp; &amp;nbsp; &amp;nbsp;&lt;/div&gt;&lt;div&gt;- model&amp;nbsp; : string&amp;nbsp; &amp;nbsp;&lt;span style=&quot;background-color: transparent; color: light-dark(rgb(0, 0, 0), rgb(255, 255, 255));&quot;&gt;;&amp;nbsp;&lt;/span&gt;&lt;span style=&quot;background-color: transparent; color: light-dark(rgb(0, 0, 0), rgb(255, 255, 255));&quot;&gt;&amp;nbsp;&lt;/span&gt;&lt;span style=&quot;background-color: transparent; color: light-dark(rgb(0, 0, 0), rgb(255, 255, 255));&quot;&gt;&amp;nbsp; &amp;nbsp; &amp;nbsp;&lt;/span&gt;&lt;/div&gt;&lt;div&gt;- madeDate : Date&amp;nbsp; &amp;nbsp;&amp;nbsp;&lt;span style=&quot;background-color: transparent; color: light-dark(rgb(0, 0, 0), rgb(255, 255, 255));&quot;&gt;;&amp;nbsp;&lt;/span&gt;&lt;span style=&quot;background-color: transparent; color: light-dark(rgb(0, 0, 0), rgb(255, 255, 255));&quot;&gt;&amp;nbsp;&lt;/span&gt;&lt;span style=&quot;background-color: transparent; color: light-dark(rgb(0, 0, 0), rgb(255, 255, 255));&quot;&gt;&amp;nbsp; &amp;nbsp; &amp;nbsp; &amp;nbsp; &amp;nbsp;&lt;/span&gt;&lt;/div&gt;&lt;div&gt;- tripCounter : double&lt;span style=&quot;background-color: transparent; color: light-dark(rgb(0, 0, 0), rgb(255, 255, 255));&quot;&gt;;&amp;nbsp;&lt;/span&gt;&lt;span style=&quot;background-color: transparent; color: light-dark(rgb(0, 0, 0), rgb(255, 255, 255));&quot;&gt;&amp;nbsp;&lt;/span&gt;&lt;/div&gt;&lt;div&gt;&lt;span style=&quot;background-color: transparent; color: light-dark(rgb(0, 0, 0), rgb(255, 255, 255));&quot;&gt;- speed : double&lt;/span&gt;&lt;span style=&quot;background-color: transparent; color: light-dark(rgb(0, 0, 0), rgb(255, 255, 255));&quot;&gt;;&amp;nbsp;&lt;/span&gt;&lt;span style=&quot;background-color: transparent; color: light-dark(rgb(0, 0, 0), rgb(255, 255, 255));&quot;&gt;&amp;nbsp;&lt;/span&gt;&lt;span style=&quot;background-color: transparent; color: light-dark(rgb(0, 0, 0), rgb(255, 255, 255));&quot;&gt;&amp;nbsp;&lt;/span&gt;&lt;span style=&quot;background-color: transparent; color: light-dark(rgb(0, 0, 0), rgb(255, 255, 255));&quot;&gt;&amp;nbsp; &amp;nbsp; &amp;nbsp; &amp;nbsp; &amp;nbsp; &amp;nbsp;&amp;nbsp;&lt;/span&gt;&lt;/div&gt;&lt;div&gt;&lt;span style=&quot;background-color: transparent; color: light-dark(rgb(0, 0, 0), rgb(255, 255, 255));&quot;&gt;- vehiculeType&amp;nbsp; : EnumTypeVehicule&lt;/span&gt;&lt;/div&gt;&lt;div&gt;&lt;br&gt;&lt;/div&gt;" style="text;strokeColor=none;fillColor=none;align=left;verticalAlign=top;spacingLeft=4;spacingRight=4;overflow=hidden;rotatable=0;points=[[0,0.5],[1,0.5]];portConstraint=eastwest;whiteSpace=wrap;html=1;" vertex="1" parent="qwMixDz7J2FrhQRotwlo-3">
          <mxGeometry y="26" width="310" height="110" as="geometry" />
        </mxCell>
        <mxCell id="qwMixDz7J2FrhQRotwlo-5" value="" style="line;strokeWidth=1;fillColor=none;align=left;verticalAlign=middle;spacingTop=-1;spacingLeft=3;spacingRight=3;rotatable=0;labelPosition=right;points=[];portConstraint=eastwest;strokeColor=inherit;" vertex="1" parent="qwMixDz7J2FrhQRotwlo-3">
          <mxGeometry y="136" width="310" height="8" as="geometry" />
        </mxCell>
        <mxCell id="qwMixDz7J2FrhQRotwlo-6" value="&lt;div&gt;&amp;nbsp;+ SetserialNumber(int number)&amp;nbsp; &amp;nbsp; &amp;nbsp; &amp;nbsp;&amp;nbsp;&lt;/div&gt;&lt;div&gt;&amp;nbsp;+ GetserialNumber()&lt;/div&gt;&lt;div&gt;&amp;nbsp;+ SetMake(string make)&amp;nbsp; &amp;nbsp; &amp;nbsp; &amp;nbsp; &amp;nbsp; &amp;nbsp; &amp;nbsp; &amp;nbsp; &amp;nbsp;&lt;/div&gt;&lt;div&gt;&amp;nbsp;+ GetMake()&amp;nbsp; &amp;nbsp;&lt;/div&gt;&lt;div&gt;&lt;span style=&quot;background-color: transparent; color: light-dark(rgb(0, 0, 0), rgb(255, 255, 255));&quot;&gt;&amp;nbsp;+ SetTripCounter(double tripCounter)&amp;nbsp; &amp;nbsp;&amp;nbsp;&lt;/span&gt;&lt;/div&gt;&lt;div&gt;&amp;nbsp;+ GetTripCounter()&amp;nbsp;&amp;nbsp;&lt;/div&gt;&lt;div&gt;&amp;nbsp;+ SetVehiculeType(Enum vehiculeType)&amp;nbsp;&amp;nbsp;&lt;/div&gt;&lt;div&gt;&amp;nbsp;+ GetVehiculeType()&lt;/div&gt;&lt;div&gt;&amp;nbsp;+ SerialNumber&amp;nbsp; &amp;nbsp;&amp;nbsp;&lt;/div&gt;&lt;div&gt;&amp;nbsp;+ Make&amp;nbsp;&amp;nbsp;&lt;/div&gt;&lt;div&gt;&amp;nbsp;+ Model&amp;nbsp;&lt;/div&gt;&lt;div&gt;&amp;nbsp;+ MadeDate&lt;/div&gt;&lt;div&gt;&amp;nbsp;+ TripCounter&lt;/div&gt;&lt;div&gt;&amp;nbsp;+ VehiculeType&amp;nbsp; &amp;nbsp; &amp;nbsp; &amp;nbsp; &amp;nbsp; &amp;nbsp; &amp;nbsp; &amp;nbsp; &amp;nbsp; &amp;nbsp; &amp;nbsp; &amp;nbsp; &amp;nbsp; &amp;nbsp;&lt;/div&gt;&lt;div&gt;&amp;nbsp;+ GetVehiculeInfo()&amp;nbsp;&amp;nbsp;&lt;/div&gt;&lt;div&gt;&lt;span style=&quot;background-color: transparent;&quot;&gt;&amp;nbsp;+ ToString()&amp;nbsp; &amp;nbsp;&lt;/span&gt;&amp;nbsp; &amp;nbsp; &amp;nbsp; &amp;nbsp; &amp;nbsp; &amp;nbsp; &amp;nbsp; &amp;nbsp;&amp;nbsp;&lt;/div&gt;&lt;div&gt;&lt;br&gt;&lt;/div&gt;" style="text;strokeColor=none;fillColor=none;align=left;verticalAlign=top;spacingLeft=4;spacingRight=4;overflow=hidden;rotatable=0;points=[[0,0.5],[1,0.5]];portConstraint=eastwest;whiteSpace=wrap;html=1;" vertex="1" parent="qwMixDz7J2FrhQRotwlo-3">
          <mxGeometry y="144" width="310" height="242" as="geometry" />
        </mxCell>
        <mxCell id="qwMixDz7J2FrhQRotwlo-12" value="EssenceVehicle" style="swimlane;fontStyle=1;align=center;verticalAlign=top;childLayout=stackLayout;horizontal=1;startSize=26;horizontalStack=0;resizeParent=1;resizeParentMax=0;resizeLast=0;collapsible=1;marginBottom=0;whiteSpace=wrap;html=1;" vertex="1" parent="1">
          <mxGeometry x="170" y="180" width="240" height="98" as="geometry" />
        </mxCell>
        <mxCell id="qwMixDz7J2FrhQRotwlo-13" value="- fuelConsumed : double&lt;span style=&quot;background-color: transparent; color: light-dark(rgb(0, 0, 0), rgb(255, 255, 255));&quot;&gt;&amp;nbsp;&lt;/span&gt;" style="text;strokeColor=none;fillColor=none;align=left;verticalAlign=top;spacingLeft=4;spacingRight=4;overflow=hidden;rotatable=0;points=[[0,0.5],[1,0.5]];portConstraint=eastwest;whiteSpace=wrap;html=1;" vertex="1" parent="qwMixDz7J2FrhQRotwlo-12">
          <mxGeometry y="26" width="240" height="24" as="geometry" />
        </mxCell>
        <mxCell id="qwMixDz7J2FrhQRotwlo-14" value="" style="line;strokeWidth=1;fillColor=none;align=left;verticalAlign=middle;spacingTop=-1;spacingLeft=3;spacingRight=3;rotatable=0;labelPosition=right;points=[];portConstraint=eastwest;strokeColor=inherit;" vertex="1" parent="qwMixDz7J2FrhQRotwlo-12">
          <mxGeometry y="50" width="240" height="8" as="geometry" />
        </mxCell>
        <mxCell id="qwMixDz7J2FrhQRotwlo-15" value="&amp;nbsp;+ GetEssenceVehiculeInfo(): double&lt;br&gt;&lt;div&gt;&lt;span style=&quot;background-color: transparent; color: light-dark(rgb(0, 0, 0), rgb(255, 255, 255));&quot;&gt;&amp;nbsp;+ ToString()&amp;nbsp;&lt;/span&gt;&amp;nbsp;&lt;/div&gt;" style="text;strokeColor=none;fillColor=none;align=left;verticalAlign=top;spacingLeft=4;spacingRight=4;overflow=hidden;rotatable=0;points=[[0,0.5],[1,0.5]];portConstraint=eastwest;whiteSpace=wrap;html=1;" vertex="1" parent="qwMixDz7J2FrhQRotwlo-12">
          <mxGeometry y="58" width="240" height="40" as="geometry" />
        </mxCell>
        <mxCell id="qwMixDz7J2FrhQRotwlo-16" value="Date" style="swimlane;fontStyle=1;align=center;verticalAlign=top;childLayout=stackLayout;horizontal=1;startSize=26;horizontalStack=0;resizeParent=1;resizeParentMax=0;resizeLast=0;collapsible=1;marginBottom=0;whiteSpace=wrap;html=1;" vertex="1" parent="1">
          <mxGeometry x="110" y="-190" width="150" height="260" as="geometry" />
        </mxCell>
        <mxCell id="qwMixDz7J2FrhQRotwlo-17" value="&lt;div&gt;&amp;nbsp;- year&amp;nbsp; : int&amp;nbsp; &amp;nbsp;&lt;/div&gt;&lt;div&gt;&amp;nbsp;- month : int&amp;nbsp; &amp;nbsp;&amp;nbsp;&lt;/div&gt;&lt;div&gt;&amp;nbsp;- day&amp;nbsp; &amp;nbsp;: int&amp;nbsp;&lt;/div&gt;" style="text;strokeColor=none;fillColor=none;align=left;verticalAlign=top;spacingLeft=4;spacingRight=4;overflow=hidden;rotatable=0;points=[[0,0.5],[1,0.5]];portConstraint=eastwest;whiteSpace=wrap;html=1;" vertex="1" parent="qwMixDz7J2FrhQRotwlo-16">
          <mxGeometry y="26" width="150" height="54" as="geometry" />
        </mxCell>
        <mxCell id="qwMixDz7J2FrhQRotwlo-18" value="" style="line;strokeWidth=1;fillColor=none;align=left;verticalAlign=middle;spacingTop=-1;spacingLeft=3;spacingRight=3;rotatable=0;labelPosition=right;points=[];portConstraint=eastwest;strokeColor=inherit;" vertex="1" parent="qwMixDz7J2FrhQRotwlo-16">
          <mxGeometry y="80" width="150" height="8" as="geometry" />
        </mxCell>
        <mxCell id="qwMixDz7J2FrhQRotwlo-19" value="&lt;div&gt;&amp;nbsp;+ GetYear()&lt;/div&gt;&lt;div&gt;&amp;nbsp;+ SetYear(year: int)&lt;/div&gt;&lt;div&gt;&amp;nbsp;+ GetMonth()&lt;/div&gt;&lt;div&gt;&amp;nbsp;+ SetMonth(month: int):&amp;nbsp;&lt;/div&gt;&lt;div&gt;&amp;nbsp;+ GetDay():&lt;/div&gt;&lt;div&gt;&amp;nbsp;+ SetDay(day: int):&amp;nbsp;&lt;/div&gt;&lt;div&gt;&amp;nbsp;+ ToString():&amp;nbsp;&lt;/div&gt;&lt;div&gt;&amp;nbsp;+ GetDateInfo():&lt;/div&gt;&lt;div&gt;&amp;nbsp;+ Year&amp;nbsp; &amp;nbsp; &amp;nbsp; &amp;nbsp; &amp;nbsp; &amp;nbsp; &amp;nbsp; &amp;nbsp; &amp;nbsp; &amp;nbsp; &amp;nbsp; &amp;nbsp; &amp;nbsp; &amp;nbsp; &amp;nbsp;&amp;nbsp;&lt;/div&gt;&lt;div&gt;&amp;nbsp;+ Month&amp;nbsp; &amp;nbsp; &amp;nbsp; &amp;nbsp; &amp;nbsp; &amp;nbsp; &amp;nbsp; &amp;nbsp; &amp;nbsp; &amp;nbsp; &amp;nbsp; &amp;nbsp; &amp;nbsp; &amp;nbsp;&lt;/div&gt;&lt;div&gt;&amp;nbsp;+ Day&amp;nbsp; &amp;nbsp; &amp;nbsp; &amp;nbsp; &amp;nbsp; &amp;nbsp; &amp;nbsp; &amp;nbsp; &amp;nbsp; &amp;nbsp;&lt;/div&gt;" style="text;strokeColor=none;fillColor=none;align=left;verticalAlign=top;spacingLeft=4;spacingRight=4;overflow=hidden;rotatable=0;points=[[0,0.5],[1,0.5]];portConstraint=eastwest;whiteSpace=wrap;html=1;" vertex="1" parent="qwMixDz7J2FrhQRotwlo-16">
          <mxGeometry y="88" width="150" height="172" as="geometry" />
        </mxCell>
        <mxCell id="qwMixDz7J2FrhQRotwlo-27" value="&lt;span style=&quot;text-align: left;&quot;&gt;ElectricVehicle&lt;/span&gt;" style="swimlane;fontStyle=1;align=center;verticalAlign=top;childLayout=stackLayout;horizontal=1;startSize=26;horizontalStack=0;resizeParent=1;resizeParentMax=0;resizeLast=0;collapsible=1;marginBottom=0;whiteSpace=wrap;html=1;" vertex="1" parent="1">
          <mxGeometry x="170" y="300" width="240" height="92" as="geometry" />
        </mxCell>
        <mxCell id="qwMixDz7J2FrhQRotwlo-43" value="energyConsumed : double" style="text;strokeColor=none;fillColor=none;align=left;verticalAlign=top;spacingLeft=4;spacingRight=4;overflow=hidden;rotatable=0;points=[[0,0.5],[1,0.5]];portConstraint=eastwest;whiteSpace=wrap;html=1;" vertex="1" parent="qwMixDz7J2FrhQRotwlo-27">
          <mxGeometry y="26" width="240" height="18" as="geometry" />
        </mxCell>
        <mxCell id="qwMixDz7J2FrhQRotwlo-29" value="" style="line;strokeWidth=1;fillColor=none;align=left;verticalAlign=middle;spacingTop=-1;spacingLeft=3;spacingRight=3;rotatable=0;labelPosition=right;points=[];portConstraint=eastwest;strokeColor=inherit;" vertex="1" parent="qwMixDz7J2FrhQRotwlo-27">
          <mxGeometry y="44" width="240" height="8" as="geometry" />
        </mxCell>
        <mxCell id="qwMixDz7J2FrhQRotwlo-30" value="&amp;nbsp;+ GetElectricVehicleInfo(): double&lt;div&gt;&lt;span style=&quot;background-color: transparent; color: light-dark(rgb(0, 0, 0), rgb(255, 255, 255));&quot;&gt;&amp;nbsp;+ ToString``()&lt;/span&gt;&lt;/div&gt;" style="text;strokeColor=none;fillColor=none;align=left;verticalAlign=top;spacingLeft=4;spacingRight=4;overflow=hidden;rotatable=0;points=[[0,0.5],[1,0.5]];portConstraint=eastwest;whiteSpace=wrap;html=1;" vertex="1" parent="qwMixDz7J2FrhQRotwlo-27">
          <mxGeometry y="52" width="240" height="40" as="geometry" />
        </mxCell>
        <mxCell id="qwMixDz7J2FrhQRotwlo-31" value="HybridVehicle" style="swimlane;fontStyle=1;align=center;verticalAlign=top;childLayout=stackLayout;horizontal=1;startSize=26;horizontalStack=0;resizeParent=1;resizeParentMax=0;resizeLast=0;collapsible=1;marginBottom=0;whiteSpace=wrap;html=1;" vertex="1" parent="1">
          <mxGeometry x="170" y="420" width="240" height="128" as="geometry">
            <mxRectangle x="170" y="420" width="110" height="30" as="alternateBounds" />
          </mxGeometry>
        </mxCell>
        <mxCell id="qwMixDz7J2FrhQRotwlo-32" value="&lt;div&gt;&lt;span style=&quot;background-color: transparent; color: light-dark(rgb(0, 0, 0), rgb(255, 255, 255));&quot;&gt;&amp;nbsp;-&lt;/span&gt;&lt;span style=&quot;background-color: transparent; color: light-dark(rgb(0, 0, 0), rgb(255, 255, 255));&quot;&gt;&amp;nbsp;&lt;/span&gt;fuelConsumed&amp;nbsp; &amp;nbsp; &amp;nbsp; &amp;nbsp; : double&amp;nbsp;&amp;nbsp;&lt;/div&gt;&lt;div&gt;&lt;span style=&quot;background-color: transparent;&quot;&gt;&amp;nbsp;- electricSupportKm&amp;nbsp; &amp;nbsp;: double&lt;/span&gt;&lt;span style=&quot;background-color: transparent; color: light-dark(rgb(0, 0, 0), rgb(255, 255, 255));&quot;&gt;&amp;nbsp;&lt;/span&gt;&lt;/div&gt;" style="text;strokeColor=none;fillColor=none;align=left;verticalAlign=top;spacingLeft=4;spacingRight=4;overflow=hidden;rotatable=0;points=[[0,0.5],[1,0.5]];portConstraint=eastwest;whiteSpace=wrap;html=1;" vertex="1" parent="qwMixDz7J2FrhQRotwlo-31">
          <mxGeometry y="26" width="240" height="44" as="geometry" />
        </mxCell>
        <mxCell id="qwMixDz7J2FrhQRotwlo-33" value="" style="line;strokeWidth=1;fillColor=none;align=left;verticalAlign=middle;spacingTop=-1;spacingLeft=3;spacingRight=3;rotatable=0;labelPosition=right;points=[];portConstraint=eastwest;strokeColor=inherit;" vertex="1" parent="qwMixDz7J2FrhQRotwlo-31">
          <mxGeometry y="70" width="240" height="8" as="geometry" />
        </mxCell>
        <mxCell id="qwMixDz7J2FrhQRotwlo-34" value="+ GetVehiculeHybridVehicleInfo(): double&lt;br&gt;&lt;div&gt;&lt;span style=&quot;background-color: transparent; color: light-dark(rgb(0, 0, 0), rgb(255, 255, 255));&quot;&gt;+ ToString``()&lt;/span&gt;&lt;/div&gt;" style="text;strokeColor=none;fillColor=none;align=left;verticalAlign=top;spacingLeft=4;spacingRight=4;overflow=hidden;rotatable=0;points=[[0,0.5],[1,0.5]];portConstraint=eastwest;whiteSpace=wrap;html=1;" vertex="1" parent="qwMixDz7J2FrhQRotwlo-31">
          <mxGeometry y="78" width="240" height="50" as="geometry" />
        </mxCell>
        <mxCell id="qwMixDz7J2FrhQRotwlo-44" value="LuxuryVehicle" style="swimlane;fontStyle=1;align=center;verticalAlign=top;childLayout=stackLayout;horizontal=1;startSize=26;horizontalStack=0;resizeParent=1;resizeParentMax=0;resizeLast=0;collapsible=1;marginBottom=0;whiteSpace=wrap;html=1;" vertex="1" parent="1">
          <mxGeometry x="1010" y="340" width="240" height="128" as="geometry" />
        </mxCell>
        <mxCell id="qwMixDz7J2FrhQRotwlo-45" value="&lt;div&gt;- luxuryRating&amp;nbsp; &amp;nbsp; &amp;nbsp; : int&lt;/div&gt;&lt;div&gt;&amp;nbsp;- additionalFeatures: List&amp;lt;String&amp;gt;&amp;nbsp;&lt;/div&gt;" style="text;strokeColor=none;fillColor=none;align=left;verticalAlign=top;spacingLeft=4;spacingRight=4;overflow=hidden;rotatable=0;points=[[0,0.5],[1,0.5]];portConstraint=eastwest;whiteSpace=wrap;html=1;" vertex="1" parent="qwMixDz7J2FrhQRotwlo-44">
          <mxGeometry y="26" width="240" height="44" as="geometry" />
        </mxCell>
        <mxCell id="qwMixDz7J2FrhQRotwlo-46" value="" style="line;strokeWidth=1;fillColor=none;align=left;verticalAlign=middle;spacingTop=-1;spacingLeft=3;spacingRight=3;rotatable=0;labelPosition=right;points=[];portConstraint=eastwest;strokeColor=inherit;" vertex="1" parent="qwMixDz7J2FrhQRotwlo-44">
          <mxGeometry y="70" width="240" height="8" as="geometry" />
        </mxCell>
        <mxCell id="qwMixDz7J2FrhQRotwlo-47" value="&lt;b&gt;+ GetLuxuryVehicleInfo(): double&lt;br&gt;&lt;/b&gt;&lt;div&gt;&lt;span style=&quot;background-color: transparent; color: light-dark(rgb(0, 0, 0), rgb(255, 255, 255));&quot;&gt;&lt;b&gt;+ ToString()&lt;/b&gt;&lt;/span&gt;&lt;/div&gt;" style="text;strokeColor=none;fillColor=none;align=left;verticalAlign=top;spacingLeft=4;spacingRight=4;overflow=hidden;rotatable=0;points=[[0,0.5],[1,0.5]];portConstraint=eastwest;whiteSpace=wrap;html=1;" vertex="1" parent="qwMixDz7J2FrhQRotwlo-44">
          <mxGeometry y="78" width="240" height="50" as="geometry" />
        </mxCell>
        <mxCell id="q5a6cAQjTK__uW6xB9Yp-13" style="edgeStyle=orthogonalEdgeStyle;rounded=0;orthogonalLoop=1;jettySize=auto;html=1;exitX=0;exitY=0;exitDx=0;exitDy=0;entryX=0.381;entryY=0.33;entryDx=0;entryDy=0;entryPerimeter=0;" edge="1" parent="1" source="qwMixDz7J2FrhQRotwlo-48" target="qwMixDz7J2FrhQRotwlo-62">
          <mxGeometry relative="1" as="geometry">
            <mxPoint x="560" y="300" as="targetPoint" />
          </mxGeometry>
        </mxCell>
        <mxCell id="qwMixDz7J2FrhQRotwlo-48" value="EmergencyVehicle" style="swimlane;fontStyle=1;align=center;verticalAlign=top;childLayout=stackLayout;horizontal=1;startSize=26;horizontalStack=0;resizeParent=1;resizeParentMax=0;resizeLast=0;collapsible=1;marginBottom=0;whiteSpace=wrap;html=1;" vertex="1" parent="1">
          <mxGeometry x="990" y="490" width="240" height="128" as="geometry" />
        </mxCell>
        <mxCell id="qwMixDz7J2FrhQRotwlo-49" value="&lt;div&gt;- responseTime&amp;nbsp; &amp;nbsp; &amp;nbsp; &amp;nbsp;: double&amp;nbsp;&amp;nbsp;&lt;/div&gt;&lt;div&gt;&amp;nbsp;- equipmentCapacity&amp;nbsp; : int&amp;nbsp;&amp;nbsp;&lt;/div&gt;" style="text;strokeColor=none;fillColor=none;align=left;verticalAlign=top;spacingLeft=4;spacingRight=4;overflow=hidden;rotatable=0;points=[[0,0.5],[1,0.5]];portConstraint=eastwest;whiteSpace=wrap;html=1;" vertex="1" parent="qwMixDz7J2FrhQRotwlo-48">
          <mxGeometry y="26" width="240" height="44" as="geometry" />
        </mxCell>
        <mxCell id="qwMixDz7J2FrhQRotwlo-50" value="" style="line;strokeWidth=1;fillColor=none;align=left;verticalAlign=middle;spacingTop=-1;spacingLeft=3;spacingRight=3;rotatable=0;labelPosition=right;points=[];portConstraint=eastwest;strokeColor=inherit;" vertex="1" parent="qwMixDz7J2FrhQRotwlo-48">
          <mxGeometry y="70" width="240" height="8" as="geometry" />
        </mxCell>
        <mxCell id="qwMixDz7J2FrhQRotwlo-51" value="&lt;b&gt;+ GetEmergencyVehicleInfo(): double&lt;br&gt;&lt;/b&gt;&lt;div&gt;&lt;span style=&quot;background-color: transparent; color: light-dark(rgb(0, 0, 0), rgb(255, 255, 255));&quot;&gt;&lt;b&gt;+ ToString()&lt;/b&gt;&lt;/span&gt;&lt;/div&gt;" style="text;strokeColor=none;fillColor=none;align=left;verticalAlign=top;spacingLeft=4;spacingRight=4;overflow=hidden;rotatable=0;points=[[0,0.5],[1,0.5]];portConstraint=eastwest;whiteSpace=wrap;html=1;" vertex="1" parent="qwMixDz7J2FrhQRotwlo-48">
          <mxGeometry y="78" width="240" height="50" as="geometry" />
        </mxCell>
        <mxCell id="qwMixDz7J2FrhQRotwlo-52" value="SportsVehicle&amp;nbsp;" style="swimlane;fontStyle=1;align=center;verticalAlign=top;childLayout=stackLayout;horizontal=1;startSize=26;horizontalStack=0;resizeParent=1;resizeParentMax=0;resizeLast=0;collapsible=1;marginBottom=0;whiteSpace=wrap;html=1;" vertex="1" parent="1">
          <mxGeometry x="1000" y="160" width="240" height="140" as="geometry" />
        </mxCell>
        <mxCell id="qwMixDz7J2FrhQRotwlo-53" value="&amp;nbsp;&lt;span style=&quot;background-color: transparent;&quot;&gt;- maxSpeed&amp;nbsp; &amp;nbsp; &amp;nbsp; &amp;nbsp; :&amp;nbsp; double&lt;/span&gt;&lt;div&gt;&lt;div&gt;&amp;nbsp;- acceleration&amp;nbsp; &amp;nbsp; : double&lt;/div&gt;&lt;/div&gt;" style="text;strokeColor=none;fillColor=none;align=left;verticalAlign=top;spacingLeft=4;spacingRight=4;overflow=hidden;rotatable=0;points=[[0,0.5],[1,0.5]];portConstraint=eastwest;whiteSpace=wrap;html=1;" vertex="1" parent="qwMixDz7J2FrhQRotwlo-52">
          <mxGeometry y="26" width="240" height="44" as="geometry" />
        </mxCell>
        <mxCell id="qwMixDz7J2FrhQRotwlo-54" value="" style="line;strokeWidth=1;fillColor=none;align=left;verticalAlign=middle;spacingTop=-1;spacingLeft=3;spacingRight=3;rotatable=0;labelPosition=right;points=[];portConstraint=eastwest;strokeColor=inherit;" vertex="1" parent="qwMixDz7J2FrhQRotwlo-52">
          <mxGeometry y="70" width="240" height="20" as="geometry" />
        </mxCell>
        <mxCell id="qwMixDz7J2FrhQRotwlo-55" value="&lt;b&gt;&amp;nbsp;+ Get&lt;span style=&quot;text-align: center;&quot;&gt;SportsVehicle&lt;/span&gt;Info(): double&lt;br&gt;&lt;/b&gt;&lt;div&gt;&lt;b&gt;&lt;span style=&quot;background-color: transparent; color: light-dark(rgb(0, 0, 0), rgb(255, 255, 255));&quot;&gt;&amp;nbsp;+ ToString()&amp;nbsp;&lt;/span&gt;&amp;nbsp;&lt;/b&gt;&lt;/div&gt;" style="text;strokeColor=none;fillColor=none;align=left;verticalAlign=top;spacingLeft=4;spacingRight=4;overflow=hidden;rotatable=0;points=[[0,0.5],[1,0.5]];portConstraint=eastwest;whiteSpace=wrap;html=1;" vertex="1" parent="qwMixDz7J2FrhQRotwlo-52">
          <mxGeometry y="90" width="240" height="50" as="geometry" />
        </mxCell>
        <mxCell id="qwMixDz7J2FrhQRotwlo-58" value="" style="fontStyle=1;align=center;verticalAlign=middle;childLayout=stackLayout;horizontal=1;horizontalStack=0;resizeParent=1;resizeParentMax=0;resizeLast=0;marginBottom=0;" vertex="1" parent="1">
          <mxGeometry x="820" y="-200" width="209" height="139" as="geometry" />
        </mxCell>
        <mxCell id="qwMixDz7J2FrhQRotwlo-59" value="&amp;lt;&amp;lt;enum&amp;gt;&amp;gt;" style="html=1;align=center;spacing=0;verticalAlign=middle;strokeColor=none;fillColor=none;whiteSpace=wrap;" vertex="1" parent="qwMixDz7J2FrhQRotwlo-58">
          <mxGeometry width="209" height="20" as="geometry" />
        </mxCell>
        <mxCell id="qwMixDz7J2FrhQRotwlo-60" value="EnumTypeVehicule" style="html=1;align=center;spacing=0;verticalAlign=middle;strokeColor=none;fillColor=none;whiteSpace=wrap;fontStyle=1;" vertex="1" parent="qwMixDz7J2FrhQRotwlo-58">
          <mxGeometry y="20" width="209" as="geometry" />
        </mxCell>
        <mxCell id="qwMixDz7J2FrhQRotwlo-61" value="" style="line;strokeWidth=0.25;fillColor=none;align=left;verticalAlign=middle;spacingTop=-1;spacingLeft=3;spacingRight=3;rotatable=0;labelPosition=right;points=[];portConstraint=eastwest;" vertex="1" parent="qwMixDz7J2FrhQRotwlo-58">
          <mxGeometry y="20" width="209" height="8" as="geometry" />
        </mxCell>
        <mxCell id="qwMixDz7J2FrhQRotwlo-62" value="EmergencyVehicle" style="html=1;align=left;spacing=0;spacingLeft=8;verticalAlign=middle;strokeColor=none;fillColor=none;whiteSpace=wrap;" vertex="1" parent="qwMixDz7J2FrhQRotwlo-58">
          <mxGeometry y="28" width="209" height="16" as="geometry" />
        </mxCell>
        <mxCell id="qwMixDz7J2FrhQRotwlo-63" value="LuxuryVehicle" style="html=1;align=left;spacing=0;spacingLeft=8;verticalAlign=middle;strokeColor=none;fillColor=none;whiteSpace=wrap;" vertex="1" parent="qwMixDz7J2FrhQRotwlo-58">
          <mxGeometry y="44" width="209" height="16" as="geometry" />
        </mxCell>
        <mxCell id="q5a6cAQjTK__uW6xB9Yp-4" value="HybridVehicle" style="html=1;align=left;spacing=0;spacingLeft=8;verticalAlign=middle;strokeColor=none;fillColor=none;whiteSpace=wrap;" vertex="1" parent="qwMixDz7J2FrhQRotwlo-58">
          <mxGeometry y="60" width="209" height="16" as="geometry" />
        </mxCell>
        <mxCell id="q5a6cAQjTK__uW6xB9Yp-5" value="&lt;br&gt;&lt;span style=&quot;color: rgb(0, 0, 0); font-family: Helvetica; font-size: 12px; font-style: normal; font-variant-ligatures: normal; font-variant-caps: normal; letter-spacing: normal; orphans: 2; text-indent: 0px; text-transform: none; widows: 2; word-spacing: 0px; -webkit-text-stroke-width: 0px; white-space: normal; background-color: rgb(236, 236, 236); text-decoration-thickness: initial; text-decoration-style: initial; text-decoration-color: initial; float: none; display: inline !important;&quot;&gt;EssenceVehicle&lt;/span&gt;&lt;div&gt;&lt;br&gt;&lt;/div&gt;" style="html=1;align=left;spacing=0;spacingLeft=8;verticalAlign=middle;strokeColor=none;fillColor=none;whiteSpace=wrap;" vertex="1" parent="qwMixDz7J2FrhQRotwlo-58">
          <mxGeometry y="76" width="209" height="16" as="geometry" />
        </mxCell>
        <mxCell id="q5a6cAQjTK__uW6xB9Yp-6" value="&lt;br&gt;&lt;span style=&quot;color: rgb(0, 0, 0); font-family: Helvetica; font-size: 12px; font-style: normal; font-variant-ligatures: normal; font-variant-caps: normal; letter-spacing: normal; orphans: 2; text-indent: 0px; text-transform: none; widows: 2; word-spacing: 0px; -webkit-text-stroke-width: 0px; white-space: normal; background-color: rgb(236, 236, 236); text-decoration-thickness: initial; text-decoration-style: initial; text-decoration-color: initial; float: none; display: inline !important;&quot;&gt;ElectricVehicle&lt;/span&gt;&lt;div&gt;&lt;br&gt;&lt;/div&gt;" style="html=1;align=left;spacing=0;spacingLeft=8;verticalAlign=middle;strokeColor=none;fillColor=none;whiteSpace=wrap;rotation=0;" vertex="1" parent="qwMixDz7J2FrhQRotwlo-58">
          <mxGeometry y="92" width="209" height="24" as="geometry" />
        </mxCell>
        <mxCell id="q5a6cAQjTK__uW6xB9Yp-19" style="edgeStyle=orthogonalEdgeStyle;rounded=0;orthogonalLoop=1;jettySize=auto;html=1;" edge="1" parent="qwMixDz7J2FrhQRotwlo-58" source="qwMixDz7J2FrhQRotwlo-64">
          <mxGeometry relative="1" as="geometry">
            <mxPoint x="-10" y="110" as="targetPoint" />
          </mxGeometry>
        </mxCell>
        <mxCell id="qwMixDz7J2FrhQRotwlo-64" value="&lt;br&gt;&lt;span style=&quot;color: rgb(0, 0, 0); font-family: Helvetica; font-size: 12px; font-style: normal; font-variant-ligatures: normal; font-variant-caps: normal; letter-spacing: normal; orphans: 2; text-align: center; text-indent: 0px; text-transform: none; widows: 2; word-spacing: 0px; -webkit-text-stroke-width: 0px; white-space: normal; background-color: rgb(236, 236, 236); text-decoration-thickness: initial; text-decoration-style: initial; text-decoration-color: initial; float: none; display: inline !important;&quot;&gt;SportsVehicle&amp;nbsp;&lt;/span&gt;&lt;div&gt;&lt;br/&gt;&lt;/div&gt;" style="html=1;align=left;spacing=0;spacingLeft=8;verticalAlign=middle;strokeColor=none;fillColor=none;whiteSpace=wrap;rotation=0;" vertex="1" parent="qwMixDz7J2FrhQRotwlo-58">
          <mxGeometry y="116" width="209" height="23" as="geometry" />
        </mxCell>
        <mxCell id="q5a6cAQjTK__uW6xB9Yp-16" style="edgeStyle=orthogonalEdgeStyle;rounded=0;orthogonalLoop=1;jettySize=auto;html=1;exitX=0.059;exitY=-0.08;exitDx=0;exitDy=0;exitPerimeter=0;" edge="1" parent="qwMixDz7J2FrhQRotwlo-58" source="q5a6cAQjTK__uW6xB9Yp-5" target="q5a6cAQjTK__uW6xB9Yp-5">
          <mxGeometry relative="1" as="geometry">
            <Array as="points">
              <mxPoint x="12" y="260" />
              <mxPoint x="-370" y="260" />
              <mxPoint x="-370" y="100" />
              <mxPoint x="-270" y="100" />
              <mxPoint x="-270" y="247" />
              <mxPoint x="104" y="247" />
            </Array>
          </mxGeometry>
        </mxCell>
        <mxCell id="qwMixDz7J2FrhQRotwlo-65" value="" style="fontStyle=1;align=center;verticalAlign=middle;childLayout=stackLayout;horizontal=1;horizontalStack=0;resizeParent=1;resizeParentMax=0;resizeLast=0;marginBottom=0;" vertex="1" parent="1">
          <mxGeometry x="1290" y="330" width="209" height="80" as="geometry" />
        </mxCell>
        <mxCell id="qwMixDz7J2FrhQRotwlo-66" value="&amp;lt;&amp;lt;enum&amp;gt;&amp;gt;" style="html=1;align=center;spacing=0;verticalAlign=middle;strokeColor=none;fillColor=none;whiteSpace=wrap;" vertex="1" parent="qwMixDz7J2FrhQRotwlo-65">
          <mxGeometry width="209" height="20" as="geometry" />
        </mxCell>
        <mxCell id="qwMixDz7J2FrhQRotwlo-67" value="EnumTypeVehicule" style="html=1;align=center;spacing=0;verticalAlign=middle;strokeColor=none;fillColor=none;whiteSpace=wrap;fontStyle=1;" vertex="1" parent="qwMixDz7J2FrhQRotwlo-65">
          <mxGeometry y="20" width="209" height="14" as="geometry" />
        </mxCell>
        <mxCell id="qwMixDz7J2FrhQRotwlo-68" value="" style="line;strokeWidth=0.25;fillColor=none;align=left;verticalAlign=middle;spacingTop=-1;spacingLeft=3;spacingRight=3;rotatable=0;labelPosition=right;points=[];portConstraint=eastwest;" vertex="1" parent="qwMixDz7J2FrhQRotwlo-65">
          <mxGeometry y="34" width="209" height="8" as="geometry" />
        </mxCell>
        <mxCell id="qwMixDz7J2FrhQRotwlo-69" value="literalName1" style="html=1;align=left;spacing=0;spacingLeft=8;verticalAlign=middle;strokeColor=none;fillColor=none;whiteSpace=wrap;" vertex="1" parent="qwMixDz7J2FrhQRotwlo-65">
          <mxGeometry y="42" width="209" height="16" as="geometry" />
        </mxCell>
        <mxCell id="qwMixDz7J2FrhQRotwlo-70" value="literalName2" style="html=1;align=left;spacing=0;spacingLeft=8;verticalAlign=middle;strokeColor=none;fillColor=none;whiteSpace=wrap;" vertex="1" parent="qwMixDz7J2FrhQRotwlo-65">
          <mxGeometry y="58" width="209" height="16" as="geometry" />
        </mxCell>
        <mxCell id="qwMixDz7J2FrhQRotwlo-71" value="" style="html=1;align=left;spacing=0;spacingLeft=8;verticalAlign=middle;strokeColor=none;fillColor=none;whiteSpace=wrap;" vertex="1" parent="qwMixDz7J2FrhQRotwlo-65">
          <mxGeometry y="74" width="209" height="6" as="geometry" />
        </mxCell>
        <mxCell id="qwMixDz7J2FrhQRotwlo-72" value="Utilisateur" style="swimlane;fontStyle=1;align=center;verticalAlign=top;childLayout=stackLayout;horizontal=1;startSize=26;horizontalStack=0;resizeParent=1;resizeParentMax=0;resizeLast=0;collapsible=1;marginBottom=0;whiteSpace=wrap;html=1;" vertex="1" parent="1">
          <mxGeometry x="570" y="830" width="310" height="60" as="geometry">
            <mxRectangle x="570" y="630" width="90" height="30" as="alternateBounds" />
          </mxGeometry>
        </mxCell>
        <mxCell id="qwMixDz7J2FrhQRotwlo-74" value="" style="line;strokeWidth=1;fillColor=none;align=left;verticalAlign=middle;spacingTop=-1;spacingLeft=3;spacingRight=3;rotatable=0;labelPosition=right;points=[];portConstraint=eastwest;strokeColor=inherit;" vertex="1" parent="qwMixDz7J2FrhQRotwlo-72">
          <mxGeometry y="26" width="310" height="8" as="geometry" />
        </mxCell>
        <mxCell id="qwMixDz7J2FrhQRotwlo-75" value="+ method(type): type" style="text;strokeColor=none;fillColor=none;align=left;verticalAlign=top;spacingLeft=4;spacingRight=4;overflow=hidden;rotatable=0;points=[[0,0.5],[1,0.5]];portConstraint=eastwest;whiteSpace=wrap;html=1;" vertex="1" parent="qwMixDz7J2FrhQRotwlo-72">
          <mxGeometry y="34" width="310" height="26" as="geometry" />
        </mxCell>
        <mxCell id="qwMixDz7J2FrhQRotwlo-82" value="Fleemanger" style="swimlane;fontStyle=1;align=center;verticalAlign=top;childLayout=stackLayout;horizontal=1;startSize=26;horizontalStack=0;resizeParent=1;resizeParentMax=0;resizeLast=0;collapsible=1;marginBottom=0;whiteSpace=wrap;html=1;" vertex="1" parent="1">
          <mxGeometry x="180" y="600" width="210" height="60" as="geometry" />
        </mxCell>
        <mxCell id="qwMixDz7J2FrhQRotwlo-84" value="" style="line;strokeWidth=1;fillColor=none;align=left;verticalAlign=middle;spacingTop=-1;spacingLeft=3;spacingRight=3;rotatable=0;labelPosition=right;points=[];portConstraint=eastwest;strokeColor=inherit;" vertex="1" parent="qwMixDz7J2FrhQRotwlo-82">
          <mxGeometry y="26" width="210" height="8" as="geometry" />
        </mxCell>
        <mxCell id="qwMixDz7J2FrhQRotwlo-85" value="+ method(type): type" style="text;strokeColor=none;fillColor=none;align=left;verticalAlign=top;spacingLeft=4;spacingRight=4;overflow=hidden;rotatable=0;points=[[0,0.5],[1,0.5]];portConstraint=eastwest;whiteSpace=wrap;html=1;" vertex="1" parent="qwMixDz7J2FrhQRotwlo-82">
          <mxGeometry y="34" width="210" height="26" as="geometry" />
        </mxCell>
        <mxCell id="q5a6cAQjTK__uW6xB9Yp-8" style="edgeStyle=orthogonalEdgeStyle;rounded=0;orthogonalLoop=1;jettySize=auto;html=1;entryX=0;entryY=0.75;entryDx=0;entryDy=0;" edge="1" parent="1" source="qwMixDz7J2FrhQRotwlo-32" target="q5a6cAQjTK__uW6xB9Yp-6">
          <mxGeometry relative="1" as="geometry">
            <Array as="points">
              <mxPoint x="540" y="468" />
              <mxPoint x="540" y="10" />
            </Array>
          </mxGeometry>
        </mxCell>
        <mxCell id="q5a6cAQjTK__uW6xB9Yp-9" style="edgeStyle=orthogonalEdgeStyle;rounded=0;orthogonalLoop=1;jettySize=auto;html=1;entryX=0;entryY=0.5;entryDx=0;entryDy=0;" edge="1" parent="1" source="qwMixDz7J2FrhQRotwlo-30" target="q5a6cAQjTK__uW6xB9Yp-5">
          <mxGeometry relative="1" as="geometry">
            <Array as="points">
              <mxPoint x="490" y="372" />
              <mxPoint x="490" y="230" />
              <mxPoint x="567" y="230" />
              <mxPoint x="567" y="-16" />
            </Array>
          </mxGeometry>
        </mxCell>
        <mxCell id="q5a6cAQjTK__uW6xB9Yp-11" style="edgeStyle=orthogonalEdgeStyle;rounded=0;orthogonalLoop=1;jettySize=auto;html=1;exitX=0;exitY=0.5;exitDx=0;exitDy=0;" edge="1" parent="1" source="qwMixDz7J2FrhQRotwlo-55" target="qwMixDz7J2FrhQRotwlo-64">
          <mxGeometry relative="1" as="geometry">
            <mxPoint x="560" y="310" as="targetPoint" />
            <Array as="points">
              <mxPoint x="920" y="275" />
            </Array>
          </mxGeometry>
        </mxCell>
        <mxCell id="q5a6cAQjTK__uW6xB9Yp-12" style="edgeStyle=orthogonalEdgeStyle;rounded=0;orthogonalLoop=1;jettySize=auto;html=1;exitX=0;exitY=0;exitDx=0;exitDy=0;entryX=1;entryY=0;entryDx=0;entryDy=0;" edge="1" parent="1" source="qwMixDz7J2FrhQRotwlo-44" target="qwMixDz7J2FrhQRotwlo-63">
          <mxGeometry relative="1" as="geometry">
            <mxPoint x="570" y="290" as="targetPoint" />
            <Array as="points">
              <mxPoint x="1010" y="316" />
              <mxPoint x="990" y="316" />
              <mxPoint x="990" y="310" />
              <mxPoint x="1280" y="310" />
              <mxPoint x="1280" y="-56" />
            </Array>
          </mxGeometry>
        </mxCell>
        <mxCell id="q5a6cAQjTK__uW6xB9Yp-14" style="edgeStyle=orthogonalEdgeStyle;rounded=0;orthogonalLoop=1;jettySize=auto;html=1;entryX=0.446;entryY=0.998;entryDx=0;entryDy=0;entryPerimeter=0;" edge="1" parent="1" target="qwMixDz7J2FrhQRotwlo-6">
          <mxGeometry relative="1" as="geometry">
            <mxPoint x="716" y="830" as="sourcePoint" />
            <mxPoint x="660" y="564.6300000000001" as="targetPoint" />
            <Array as="points">
              <mxPoint x="716" y="560" />
            </Array>
          </mxGeometry>
        </mxCell>
        <mxCell id="q5a6cAQjTK__uW6xB9Yp-15" style="edgeStyle=orthogonalEdgeStyle;rounded=0;orthogonalLoop=1;jettySize=auto;html=1;" edge="1" parent="1" source="qwMixDz7J2FrhQRotwlo-19" target="qwMixDz7J2FrhQRotwlo-4">
          <mxGeometry relative="1" as="geometry" />
        </mxCell>
        <mxCell id="q5a6cAQjTK__uW6xB9Yp-10" style="edgeStyle=orthogonalEdgeStyle;rounded=0;orthogonalLoop=1;jettySize=auto;html=1;entryX=0;entryY=0;entryDx=0;entryDy=0;" edge="1" parent="1" source="qwMixDz7J2FrhQRotwlo-15" target="q5a6cAQjTK__uW6xB9Yp-4">
          <mxGeometry relative="1" as="geometry">
            <mxPoint x="560" y="310" as="targetPoint" />
            <Array as="points">
              <mxPoint x="530" y="258" />
              <mxPoint x="530" y="-160" />
              <mxPoint x="820" y="-160" />
            </Array>
          </mxGeometry>
        </mxCell>
        <mxCell id="q5a6cAQjTK__uW6xB9Yp-17" value="Text" style="edgeLabel;html=1;align=center;verticalAlign=middle;resizable=0;points=[];" connectable="0" vertex="1" parent="q5a6cAQjTK__uW6xB9Yp-10">
          <mxGeometry x="-0.9168" y="-5" relative="1" as="geometry">
            <mxPoint as="offset" />
          </mxGeometry>
        </mxCell>
        <mxCell id="q5a6cAQjTK__uW6xB9Yp-20" value="Text" style="text;html=1;align=center;verticalAlign=middle;resizable=0;points=[];autosize=1;strokeColor=none;fillColor=none;" vertex="1" parent="1">
          <mxGeometry x="545" y="-1572" width="50" height="30" as="geometry" />
        </mxCell>
      </root>
    </mxGraphModel>
  </diagram>
</mxfile>
